<?xml version="1.0" standalone="no"?>
<!DOCTYPE svg PUBLIC "-//W3C//DTD SVG 20010904//EN"
 "http://www.w3.org/TR/2001/REC-SVG-20010904/DTD/svg10.dtd">
<svg version="1.0" xmlns="http://www.w3.org/2000/svg"
 width="596.000000pt" height="320.000000pt" viewBox="0 0 596.000000 320.000000"
 preserveAspectRatio="xMidYMid meet">
<metadata>
Created by potrace 1.16, written by Peter Selinger 2001-2019
</metadata>
<g transform="translate(0.000000,320.000000) scale(0.100000,-0.100000)"
fill="#000000" stroke="none">
<path d="M1061 2769 c-255 -39 -480 -244 -547 -499 -22 -85 -22 -235 -1 -320
62 -240 249 -431 483 -490 43 -11 92 -20 109 -20 39 0 40 -1 154 -183 85 -135
95 -147 122 -147 21 0 32 7 39 23 6 12 13 98 17 191 l8 170 60 34 c95 56 205
173 254 273 54 111 72 184 73 299 1 203 -68 361 -221 502 -144 133 -353 197
-550 167z m254 -104 c94 -25 173 -73 256 -155 118 -116 169 -240 169 -408 0
-159 -54 -286 -170 -402 -65 -65 -95 -85 -190 -130 -21 -10 -28 -43 -29 -145
-1 -49 -5 -96 -9 -103 -6 -8 -24 13 -57 65 -88 143 -89 143 -148 143 -29 0
-79 7 -112 15 -195 51 -351 200 -411 391 -23 74 -26 95 -21 191 5 124 21 183
74 271 78 128 209 230 344 266 72 20 230 20 304 1z"/>
<path d="M1078 2430 c-37 -5 -72 -11 -78 -15 -14 -8 -4 -143 11 -161 7 -9 23
-7 59 7 55 21 96 24 105 9 3 -5 -16 -34 -44 -63 -50 -53 -71 -91 -71 -128 0
-17 8 -19 94 -19 89 0 94 1 100 23 3 12 24 45 47 72 50 61 59 82 59 145 0 106
-99 152 -282 130z"/>
<path d="M1060 1927 c0 -29 5 -58 12 -65 7 -7 43 -12 90 -12 l78 0 0 65 0 65
-90 0 -90 0 0 -53z"/>
<path d="M3531 2531 c-42 -45 -54 -90 -49 -185 5 -76 3 -84 -25 -135 l-31 -54
12 -96 c7 -53 12 -198 12 -322 0 -217 -1 -227 -22 -254 -21 -27 -24 -27 -92
-22 -39 3 -109 18 -156 32 -266 82 -509 85 -750 10 -48 -15 -126 -30 -180 -35
-105 -8 -167 -26 -250 -72 -129 -72 -270 -202 -385 -357 -59 -78 -73 -91 -135
-121 l-69 -33 -236 142 c-137 83 -242 141 -250 137 -12 -4 -15 -25 -15 -95 0
-147 54 -284 175 -446 37 -50 71 -110 90 -160 41 -108 75 -163 146 -239 105
-113 -152 -101 2133 -104 1785 -2 2002 -1 2023 13 25 17 30 52 11 78 -7 9
-213 100 -458 203 -245 102 -589 247 -765 320 l-320 135 -82 82 c-46 45 -83
85 -83 90 0 5 22 34 49 65 45 52 53 69 89 192 21 74 47 168 57 208 11 48 22
72 32 72 18 0 70 -27 109 -56 l30 -24 34 35 c33 34 33 35 14 56 -10 12 -44 39
-75 61 l-56 39 -5 132 c-4 104 -2 139 10 163 14 30 13 34 -10 73 l-25 42 -36
-40 c-44 -49 -52 -86 -44 -206 6 -87 5 -93 -20 -130 -16 -24 -31 -66 -39 -114
-8 -42 -36 -150 -63 -240 -45 -149 -54 -168 -90 -205 l-40 -40 -115 112 c-64
62 -120 112 -126 112 -19 0 -10 16 21 34 18 11 40 37 52 65 20 43 22 62 22
304 0 191 3 257 12 257 6 0 42 -16 79 -35 l67 -35 28 32 c16 18 28 38 28 43 1
13 -50 46 -110 72 l-46 20 -11 140 c-15 179 -15 198 3 213 13 11 12 17 -7 49
-33 56 -35 56 -67 22z m-757 -1564 c73 -33 130 -88 162 -154 23 -47 30 -54 48
-47 12 3 59 9 106 11 70 4 95 1 141 -16 69 -26 137 -84 169 -144 23 -42 25
-44 54 -36 17 5 61 9 98 9 98 0 169 -30 239 -99 98 -99 121 -231 37 -219 -18
2 -27 15 -41 59 -20 66 -70 122 -131 150 -58 26 -157 25 -213 -2 -60 -29 -73
-23 -100 46 -27 71 -90 135 -150 153 -50 15 -142 16 -180 2 -15 -6 -43 -27
-61 -46 -18 -20 -38 -34 -44 -32 -7 3 -24 44 -39 92 -35 114 -68 162 -127 189
-66 30 -161 29 -223 -1 -62 -30 -135 -105 -170 -174 -33 -65 -41 -72 -74 -64
-40 10 -40 39 1 116 57 110 169 204 271 230 61 15 167 4 227 -23z m-1104 -342
c29 -15 62 -50 80 -84 17 -34 15 -112 -4 -149 -57 -111 -225 -122 -297 -20
-35 49 -39 142 -7 187 56 82 145 107 228 66z"/>
<path d="M1555 603 c-80 -21 -119 -117 -80 -193 16 -31 39 -47 86 -60 65 -19
141 33 155 105 15 83 -78 169 -161 148z"/>
</g>
</svg>
