<?xml version="1.0" standalone="no"?>
<!DOCTYPE svg PUBLIC "-//W3C//DTD SVG 20010904//EN"
 "http://www.w3.org/TR/2001/REC-SVG-20010904/DTD/svg10.dtd">
<svg version="1.0" xmlns="http://www.w3.org/2000/svg"
 width="514.000000pt" height="514.000000pt" viewBox="0 0 514.000000 514.000000"
 preserveAspectRatio="xMidYMid meet">

<g transform="translate(0.000000,514.000000) scale(0.100000,-0.100000)"
fill="#000000" stroke="none">
<path d="M2133 5125 c-212 -57 -387 -242 -439 -463 -20 -81 -22 -226 -5 -306
17 -75 64 -181 86 -190 9 -3 36 -6 60 -6 84 0 106 71 60 194 -62 165 -14 351
125 480 108 100 227 136 354 107 70 -16 160 -83 209 -154 36 -52 41 -67 45
-131 3 -56 0 -80 -13 -107 -50 -99 -128 -159 -207 -159 -27 0 -63 6 -81 13
-38 17 -104 87 -113 121 -14 58 42 140 104 152 29 6 37 2 82 -45 45 -47 53
-51 95 -51 159 0 104 217 -70 277 -108 36 -257 -3 -326 -86 -56 -69 -73 -118
-73 -216 -1 -82 2 -96 32 -157 60 -123 166 -189 315 -196 134 -7 220 23 309
106 93 87 138 195 138 332 0 102 -19 173 -66 252 -67 110 -207 210 -332 237
-72 15 -225 13 -289 -4z"/>
<path d="M343 4478 c-22 -23 -23 -33 -23 -159 0 -156 22 -411 50 -589 22 -136
55 -300 69 -340 5 -14 17 -53 26 -87 l18 -62 -65 -73 c-275 -307 -418 -658
-418 -1023 0 -130 10 -145 95 -145 30 0 55 -2 55 -5 0 -4 -6 -18 -14 -34 -8
-15 -33 -81 -55 -147 -56 -164 -81 -322 -81 -505 0 -139 1 -146 23 -167 19
-18 35 -22 90 -22 37 0 67 -2 67 -4 0 -2 -7 -23 -15 -47 -50 -141 -34 -468 25
-499 33 -18 102 -11 232 24 70 18 131 30 135 26 4 -4 31 -20 58 -35 28 -16 86
-48 130 -73 415 -232 928 -412 1380 -483 189 -30 569 -37 770 -15 509 58 1072
252 1585 545 58 33 112 60 120 60 8 1 69 -13 134 -29 177 -44 225 -40 245 22
41 130 34 365 -14 490 -6 16 0 18 64 18 59 0 75 4 92 21 21 21 21 27 16 208
-7 236 -42 403 -124 589 -13 29 -23 55 -23 57 0 3 24 5 53 5 44 0 58 4 77 25
22 24 23 28 17 162 -14 359 -168 723 -416 985 -51 55 -62 72 -57 90 97 340
142 632 153 994 8 256 15 244 -154 244 -65 0 -149 -5 -188 -10 -131 -19 -313
-67 -405 -107 -243 -108 -389 -204 -555 -365 l-109 -107 -51 14 c-62 17 -226
50 -320 64 -180 27 -304 33 -543 28 -265 -6 -451 -28 -658 -81 l-99 -25 -102
98 c-192 186 -378 306 -603 388 -193 71 -309 93 -510 100 -154 5 -155 5 -177
-19z m289 -360 c151 -125 263 -224 391 -347 l97 -94 -91 -49 c-97 -52 -236
-143 -330 -214 l-57 -43 -30 122 c-44 174 -76 379 -97 607 -3 36 -8 77 -11 93
-3 15 -3 27 0 27 3 0 61 -46 128 -102z m3997 12 c-5 -47 -14 -128 -20 -180
-14 -134 -45 -304 -80 -453 l-31 -128 -32 25 c-71 58 -267 187 -353 233 l-93
50 88 84 c167 162 518 466 527 457 2 -2 -1 -41 -6 -88z m-2307 -608 l3 -309
30 -49 c17 -27 51 -63 77 -80 117 -79 277 -43 353 80 l30 49 3 310 3 309 37
-5 c20 -3 88 -13 150 -22 l112 -17 0 -182 c0 -99 5 -199 10 -220 12 -55 59
-116 115 -151 43 -26 57 -30 125 -30 68 0 83 4 126 30 56 35 101 95 114 151 5
21 10 90 10 152 0 61 2 112 4 112 2 0 59 -23 127 -51 230 -94 454 -223 619
-356 178 -144 357 -359 446 -536 63 -123 118 -314 139 -474 l7 -53 -92 0 c-88
0 -93 -1 -121 -29 -39 -40 -38 -74 7 -136 103 -144 175 -373 199 -636 l7 -77
-95 -3 c-76 -3 -99 -8 -116 -23 -32 -29 -36 -76 -11 -127 53 -103 95 -282 83
-354 -5 -31 -9 -36 -27 -31 -12 4 -49 13 -82 22 l-62 16 -6 49 c-20 150 -111
358 -219 501 -84 112 -134 133 -188 79 -38 -38 -38 -76 1 -127 131 -171 210
-337 234 -489 l6 -40 -87 -50 c-452 -256 -924 -430 -1388 -512 -150 -26 -178
-28 -435 -28 -257 0 -285 2 -435 28 -429 76 -894 241 -1286 458 -194 106 -191
104 -183 147 28 159 104 316 234 486 39 51 39 89 1 127 -55 54 -104 33 -191
-82 -106 -142 -196 -348 -216 -498 l-6 -49 -62 -16 c-33 -9 -70 -18 -82 -22
-18 -5 -22 0 -27 30 -11 69 25 240 69 328 31 61 32 128 3 154 -17 15 -40 20
-115 22 -110 5 -102 -13 -79 169 28 216 96 414 184 541 50 70 52 102 12 143
-28 28 -33 29 -121 29 l-92 0 7 53 c20 157 76 351 136 469 188 375 565 692
1068 897 68 28 125 51 127 51 2 0 4 -51 4 -112 0 -62 5 -131 10 -152 12 -55
59 -116 115 -151 43 -26 57 -30 125 -30 68 0 83 4 126 30 56 35 101 95 114
151 5 21 10 121 10 220 l0 182 118 17 c64 9 122 18 127 20 6 2 20 4 32 4 l22
1 3 -308z"/>
<path d="M1324 2956 c-186 -60 -364 -246 -418 -436 -35 -127 -29 -288 17 -410
40 -107 108 -140 168 -81 35 36 36 54 5 140 -44 123 -43 229 3 353 41 108 139
207 248 249 87 33 208 31 289 -5 206 -92 265 -339 115 -479 -111 -104 -290
-73 -335 59 -13 39 -13 49 0 86 18 53 31 68 72 85 46 19 90 3 131 -47 28 -36
37 -40 76 -40 35 0 48 5 64 26 38 48 26 97 -38 167 -72 80 -216 103 -318 51
-58 -28 -111 -82 -145 -146 -19 -36 -23 -58 -23 -138 0 -86 3 -100 29 -148 38
-68 112 -137 184 -170 49 -23 70 -26 153 -26 89 0 102 3 164 33 37 19 89 56
118 85 231 231 152 604 -162 759 l-84 42 -136 2 c-91 2 -149 -2 -177 -11z"/>
<path d="M3564 2956 c-187 -61 -364 -245 -418 -436 -35 -127 -29 -287 15 -406
42 -111 110 -145 170 -85 36 36 36 54 3 145 -35 94 -37 230 -5 320 58 162 183
271 340 297 206 33 403 -116 405 -306 1 -82 -24 -143 -83 -198 -111 -104 -290
-73 -335 59 -13 39 -13 49 0 86 18 53 31 68 72 85 46 19 90 3 131 -47 28 -36
37 -40 76 -40 35 0 48 5 64 26 51 64 -3 168 -114 220 -108 51 -248 23 -329
-66 -66 -73 -81 -114 -81 -220 0 -86 3 -100 29 -148 38 -68 112 -137 184 -170
49 -22 71 -26 152 -27 88 0 100 2 163 33 355 175 331 660 -42 845 l-84 42
-136 2 c-91 2 -149 -2 -177 -11z"/>
<path d="M2480 2253 c-157 -20 -296 -86 -421 -200 -166 -150 -213 -177 -337
-189 -55 -6 -72 -12 -96 -36 -24 -25 -28 -34 -23 -65 10 -62 35 -78 119 -75
165 5 236 42 485 255 117 100 215 137 363 137 148 0 246 -37 363 -137 249
-213 320 -250 485 -255 84 -3 109 13 119 75 5 31 1 40 -23 65 -24 24 -41 30
-96 36 -124 12 -170 38 -327 180 -107 97 -227 166 -332 191 -69 16 -222 26
-279 18z"/>
<path d="M2470 2011 c-91 -10 -160 -36 -209 -77 -52 -45 -77 -94 -91 -177 -20
-126 19 -212 130 -286 33 -21 87 -50 120 -63 l60 -23 0 -128 c0 -113 -2 -128
-17 -134 -164 -55 -271 -177 -293 -331 -38 -274 187 -501 460 -462 321 45 458
441 235 679 -41 43 -130 98 -187 115 -16 5 -18 20 -18 133 l0 128 69 28 c188
76 263 183 240 344 -14 98 -51 157 -130 205 -66 41 -236 63 -369 49z m260
-197 c22 -9 45 -25 51 -36 17 -32 13 -107 -7 -129 -25 -28 -171 -99 -204 -99
-32 0 -179 71 -204 99 -18 20 -24 81 -11 120 4 13 24 31 48 42 57 25 266 27
327 3z m-38 -893 c69 -44 98 -100 98 -191 0 -91 -29 -147 -98 -191 -40 -25
-55 -29 -122 -29 -67 0 -82 4 -122 29 -69 44 -98 100 -98 191 0 91 29 147 98
191 40 25 55 29 122 29 67 0 82 -4 122 -29z"/>
<path d="M1100 1693 c-8 -3 -23 -12 -32 -21 -25 -21 -25 -103 0 -125 23 -21
379 -109 406 -101 41 12 56 35 56 84 0 32 -6 52 -17 62 -17 15 -354 109 -384
107 -8 0 -21 -3 -29 -6z"/>
<path d="M3815 1654 c-93 -25 -178 -53 -187 -61 -12 -11 -18 -31 -18 -63 0
-49 15 -72 56 -84 27 -8 383 80 406 101 25 23 25 104 -1 127 -34 31 -80 27
-256 -20z"/>
<path d="M1100 1373 c-37 -14 -50 -36 -50 -83 0 -35 5 -52 21 -66 19 -17 38
-19 219 -19 181 0 200 2 219 19 30 27 30 105 0 132 -19 17 -40 19 -208 21
-102 1 -193 0 -201 -4z"/>
<path d="M3660 1373 c-36 -14 -50 -36 -50 -83 0 -35 5 -52 21 -66 19 -17 38
-19 219 -19 181 0 200 2 219 19 30 27 30 105 0 132 -19 17 -40 19 -208 21
-102 1 -193 -1 -201 -4z"/>
<path d="M1260 1094 c-197 -51 -215 -61 -214 -124 2 -45 23 -75 59 -84 30 -8
384 80 407 101 25 22 25 104 1 125 -34 30 -75 27 -253 -18z"/>
<path d="M3665 1133 c-39 -10 -55 -34 -55 -83 0 -32 6 -52 18 -63 23 -21 379
-109 406 -101 41 12 56 35 56 84 0 32 -6 52 -17 63 -14 12 -372 111 -385 106
-2 -1 -12 -4 -23 -6z"/>
</g>
</svg>
